<svg width="11" height="12" viewBox="0 0 11 12" fill="none" xmlns="http://www.w3.org/2000/svg">
<g opacity="0.7">
<path d="M8.0346 4.06109C8.00252 4.0565 7.97043 4.0565 7.93835 4.06109C7.22793 4.03817 6.66418 3.45609 6.66418 2.74109C6.66418 2.01234 7.25543 1.4165 7.98877 1.4165C8.71752 1.4165 9.31335 2.00775 9.31335 2.74109C9.30877 3.45609 8.74502 4.03817 8.0346 4.06109Z" fill="#292D32"/>
<path d="M9.52869 7.23768C9.01536 7.58143 8.29578 7.70977 7.63119 7.62268C7.80536 7.24685 7.89703 6.82977 7.90161 6.38977C7.90161 5.93144 7.80078 5.49602 7.60828 5.1156C8.28661 5.02393 9.00619 5.15227 9.52411 5.49602C10.2483 5.97268 10.2483 6.75643 9.52869 7.23768Z" fill="#292D32"/>
<path d="M2.95166 4.06109C2.98374 4.0565 3.01582 4.0565 3.04791 4.06109C3.75832 4.03817 4.32207 3.45609 4.32207 2.74109C4.32207 2.00775 3.73082 1.4165 2.99749 1.4165C2.26874 1.4165 1.67749 2.00775 1.67749 2.74109C1.67749 3.45609 2.24124 4.03817 2.95166 4.06109Z" fill="#292D32"/>
<path d="M3.00214 6.38985C3.00214 6.83444 3.09839 7.2561 3.27255 7.63652C2.6263 7.70527 1.95255 7.56777 1.45755 7.24235C0.733387 6.7611 0.733387 5.97735 1.45755 5.4961C1.94797 5.1661 2.64005 5.03319 3.29089 5.10652C3.10297 5.49152 3.00214 5.92694 3.00214 6.38985Z" fill="#292D32"/>
<path d="M5.55507 7.77375C5.51841 7.76917 5.47716 7.76917 5.43591 7.77375C4.59257 7.74625 3.91882 7.05417 3.91882 6.20167C3.92341 5.33083 4.62466 4.625 5.50007 4.625C6.37091 4.625 7.07674 5.33083 7.07674 6.20167C7.07216 7.05417 6.40299 7.74625 5.55507 7.77375Z" fill="#292D32"/>
<path d="M4.06545 8.72246C3.37337 9.18538 3.37337 9.94621 4.06545 10.4045C4.85378 10.9316 6.14628 10.9316 6.93462 10.4045C7.6267 9.94163 7.6267 9.18079 6.93462 8.72246C6.15087 8.19538 4.85837 8.19538 4.06545 8.72246Z" fill="#292D32"/>
</g>
</svg>
