<svg width="11" height="12" viewBox="0 0 11 12" fill="none" xmlns="http://www.w3.org/2000/svg">
<g opacity="0.7">
<path d="M7.97039 7.68208L6.11872 6H4.87664L3.02497 7.68208C2.50705 8.14958 2.33747 8.86917 2.58955 9.52C2.84164 10.1663 3.4558 10.5833 4.14789 10.5833H6.84747C7.54414 10.5833 8.15372 10.1663 8.4058 9.52C8.65789 8.86917 8.4883 8.14958 7.97039 7.68208ZM6.33414 8.81417H4.6658C4.49164 8.81417 4.35414 8.67208 4.35414 8.5025C4.35414 8.33292 4.49622 8.19083 4.6658 8.19083H6.33414C6.5083 8.19083 6.6458 8.33292 6.6458 8.5025C6.6458 8.67208 6.50372 8.81417 6.33414 8.81417Z" fill="#292D32"/>
<path d="M8.41039 2.47984C8.15831 1.83359 7.54414 1.4165 6.85206 1.4165H4.14789C3.45581 1.4165 2.84164 1.83359 2.58956 2.47984C2.34206 3.13067 2.51164 3.85025 3.02956 4.31775L4.88122 5.99984H6.1233L7.97497 4.31775C8.48831 3.85025 8.65789 3.13067 8.41039 2.47984ZM6.33414 3.81359H4.66581C4.49164 3.81359 4.35414 3.6715 4.35414 3.50192C4.35414 3.33234 4.49622 3.19025 4.66581 3.19025H6.33414C6.50831 3.19025 6.64581 3.33234 6.64581 3.50192C6.64581 3.6715 6.50372 3.81359 6.33414 3.81359Z" fill="#292D32"/>
</g>
</svg>
